<svg width="45" height="36" viewBox="0 0 45 36" fill="none" xmlns="http://www.w3.org/2000/svg">
<path d="M44.1199 7.0763L41.1473 1.93345C40.4582 0.740311 39.1827 0.00488281 37.8096 0.00488281H31.129L40.7822 16.7192L44.1199 10.9334C44.809 9.7403 44.809 8.26945 44.1199 7.0763Z" fill="#884DF8"/>
<path d="M37.4464 22.4997C38.1356 21.3066 38.1356 19.8357 37.4464 18.6426L27.7984 1.93345C27.1093 0.740311 25.8339 0.00488281 24.4556 0.00488281H17.775L34.1036 28.2854L37.4413 22.4997H37.4464Z" fill="#884DF8"/>
<path d="M20.7514 35.9994C22.8817 35.9994 24.6086 34.2725 24.6086 32.1423C24.6086 30.0121 22.8817 28.2852 20.7514 28.2852C18.6212 28.2852 16.8943 30.0121 16.8943 32.1423C16.8943 34.2725 18.6212 35.9994 20.7514 35.9994Z" fill="#884DF8"/>
<path d="M34.1073 35.9994C36.2375 35.9994 37.9644 34.2725 37.9644 32.1423C37.9644 30.0121 36.2375 28.2852 34.1073 28.2852C31.977 28.2852 30.2501 30.0121 30.2501 32.1423C30.2501 34.2725 31.977 35.9994 34.1073 35.9994Z" fill="#884DF8"/>
<path d="M14.4463 1.92857C13.7571 0.735428 12.4817 0 11.1086 0H4.428H0L4.45885 7.71428H8.8817L20.7565 28.2805L24.0994 22.4948C24.7885 21.3017 24.7885 19.8308 24.0994 18.6377L14.4463 1.92857Z" fill="#884DF8"/>
</svg>
